<svg width="20" height="18" viewBox="0 0 20 18" fill="none" xmlns="http://www.w3.org/2000/svg">
<path d="M16.9997 17.667L13.4997 14.2295C13.0136 14.4239 12.465 14.5732 11.8538 14.6774C11.2427 14.7816 10.6247 14.8337 9.99967 14.8337C7.9719 14.8337 6.13162 14.2677 4.47884 13.1357C2.82606 12.0038 1.61079 10.4864 0.833008 8.58366C1.11079 7.86144 1.4962 7.15658 1.98926 6.46908C2.48231 5.78158 3.08301 5.12533 3.79134 4.50033L1.16634 1.87533L2.04134 0.979492L17.8122 16.7503L16.9997 17.667ZM9.99967 12.1253C10.1941 12.1253 10.4025 12.108 10.6247 12.0732C10.8469 12.0385 11.0344 11.9864 11.1872 11.917L6.66634 7.39616C6.5969 7.56283 6.54481 7.75033 6.51009 7.95866C6.47537 8.16699 6.45801 8.37533 6.45801 8.58366C6.45801 9.58366 6.80523 10.4239 7.49967 11.1045C8.19412 11.785 9.02745 12.1253 9.99967 12.1253ZM15.7913 12.9587L13.1038 10.2712C13.2427 10.0489 13.3504 9.78852 13.4268 9.48991C13.5031 9.1913 13.5413 8.88921 13.5413 8.58366C13.5413 7.59755 13.1976 6.76074 12.5101 6.07324C11.8226 5.38574 10.9858 5.04199 9.99967 5.04199C9.69412 5.04199 9.39551 5.07671 9.10384 5.14616C8.81218 5.2156 8.54829 5.32671 8.31218 5.47949L6.02051 3.16699C6.50662 2.94477 7.12815 2.75033 7.88509 2.58366C8.64204 2.41699 9.38162 2.33366 10.1038 2.33366C12.09 2.33366 13.9059 2.89963 15.5518 4.03158C17.1976 5.16352 18.4025 6.68088 19.1663 8.58366C18.8052 9.47255 18.34 10.285 17.7705 11.0212C17.2011 11.7573 16.5413 12.4031 15.7913 12.9587ZM12.1872 9.35449L9.22884 6.39616C9.63162 6.24338 10.0483 6.21213 10.4788 6.30241C10.9094 6.39269 11.2844 6.5906 11.6038 6.89616C11.9233 7.2156 12.1455 7.57324 12.2705 7.96908C12.3955 8.36491 12.3677 8.82671 12.1872 9.35449Z" fill="#262626" fill-opacity="0.25"/>
</svg>
